<svg width="21" height="18" viewBox="0 0 21 18" fill="none" xmlns="http://www.w3.org/2000/svg">
<path d="M15.147 0.72402C13.4786 0.715104 11.8925 1.44783 10.8178 2.724C9.7499 1.4391 8.15943 0.704298 6.48873 0.72402C3.35679 0.72402 0.817871 3.26294 0.817871 6.39488C0.817871 11.762 10.1849 17.0025 10.5647 17.205C10.7179 17.3074 10.9178 17.3074 11.071 17.205C11.4508 17.0025 20.8179 11.8379 20.8179 6.39488C20.8179 3.26294 18.2789 0.72402 15.147 0.72402ZM10.8178 16.1923C9.3495 15.3316 1.83053 10.7493 1.83053 6.39488C1.83053 3.82223 3.91608 1.73663 6.48877 1.73663C8.06422 1.71594 9.53858 2.51059 10.3875 3.83788C10.5599 4.07557 10.8923 4.12853 11.13 3.95612C11.1754 3.92317 11.2153 3.88329 11.2482 3.83788C12.6562 1.68468 15.5431 1.08052 17.6963 2.48845C19.0144 3.35035 19.8078 4.81992 19.8052 6.39483C19.8052 10.7999 12.2862 15.3569 10.8178 16.1923Z" fill="#999999"/>
</svg>
